G04 #@! TF.GenerationSoftware,KiCad,Pcbnew,6.0.2+dfsg-1*
G04 #@! TF.CreationDate,2022-08-27T16:00:58-04:00*
G04 #@! TF.ProjectId,ornament,6f726e61-6d65-46e7-942e-6b696361645f,rev?*
G04 #@! TF.SameCoordinates,Original*
G04 #@! TF.FileFunction,Legend,Bot*
G04 #@! TF.FilePolarity,Positive*
%FSLAX46Y46*%
G04 Gerber Fmt 4.6, Leading zero omitted, Abs format (unit mm)*
G04 Created by KiCad (PCBNEW 6.0.2+dfsg-1) date 2022-08-27 16:00:58*
%MOMM*%
%LPD*%
G01*
G04 APERTURE LIST*
%ADD10C,0.150000*%
%ADD11C,0.120000*%
%ADD12C,0.990600*%
%ADD13C,3.000000*%
%ADD14R,0.400000X1.350000*%
%ADD15O,1.200000X1.900000*%
%ADD16R,1.500000X1.900000*%
%ADD17C,1.450000*%
%ADD18R,1.200000X1.900000*%
%ADD19R,1.600000X1.400000*%
G04 APERTURE END LIST*
D10*
X150333333Y-113339880D02*
X150333333Y-114054166D01*
X150380952Y-114197023D01*
X150476190Y-114292261D01*
X150619047Y-114339880D01*
X150714285Y-114339880D01*
X149333333Y-114339880D02*
X149904761Y-114339880D01*
X149619047Y-114339880D02*
X149619047Y-113339880D01*
X149714285Y-113482738D01*
X149809523Y-113577976D01*
X149904761Y-113625595D01*
X151333333Y-104704761D02*
X151190476Y-104752380D01*
X150952380Y-104752380D01*
X150857142Y-104704761D01*
X150809523Y-104657142D01*
X150761904Y-104561904D01*
X150761904Y-104466666D01*
X150809523Y-104371428D01*
X150857142Y-104323809D01*
X150952380Y-104276190D01*
X151142857Y-104228571D01*
X151238095Y-104180952D01*
X151285714Y-104133333D01*
X151333333Y-104038095D01*
X151333333Y-103942857D01*
X151285714Y-103847619D01*
X151238095Y-103800000D01*
X151142857Y-103752380D01*
X150904761Y-103752380D01*
X150761904Y-103800000D01*
X150428571Y-103752380D02*
X150190476Y-104752380D01*
X150000000Y-104038095D01*
X149809523Y-104752380D01*
X149571428Y-103752380D01*
X148666666Y-104752380D02*
X149238095Y-104752380D01*
X148952380Y-104752380D02*
X148952380Y-103752380D01*
X149047619Y-103895238D01*
X149142857Y-103990476D01*
X149238095Y-104038095D01*
D11*
X146100000Y-115237500D02*
X146550000Y-115237500D01*
X146100000Y-119637500D02*
X146100000Y-119387500D01*
X153900000Y-117087500D02*
X153900000Y-115237500D01*
X153900000Y-119637500D02*
X153900000Y-119387500D01*
X151700000Y-114687500D02*
X151700000Y-115137500D01*
X146100000Y-117087500D02*
X146100000Y-115237500D01*
X153900000Y-115237500D02*
X153450000Y-115237500D01*
X151700000Y-114687500D02*
X151250000Y-114687500D01*
X146900000Y-101300000D02*
X146900000Y-98700000D01*
X153100000Y-101300000D02*
X153100000Y-98700000D01*
X144900000Y-102300000D02*
X144900000Y-103300000D01*
X152900000Y-103250000D02*
X147100000Y-103250000D01*
X153000000Y-96750000D02*
X147000000Y-96750000D01*
X144900000Y-103300000D02*
X145900000Y-103300000D01*
%LPC*%
D12*
X147574000Y-89789000D03*
X147574000Y-91821000D03*
X152654000Y-90805000D03*
D13*
X160000000Y-96670000D03*
X150000000Y-108000000D03*
X140000000Y-103330000D03*
X140000000Y-96670000D03*
X160000000Y-103330000D03*
D14*
X151300000Y-115537500D03*
X150650000Y-115537500D03*
X150000000Y-115537500D03*
X149350000Y-115537500D03*
X148700000Y-115537500D03*
D15*
X153500000Y-118237500D03*
X146500000Y-118237500D03*
D16*
X149000000Y-118237500D03*
D17*
X152500000Y-115537500D03*
D16*
X151000000Y-118237500D03*
D18*
X147100000Y-118237500D03*
D17*
X147500000Y-115537500D03*
D18*
X152900000Y-118237500D03*
D19*
X146000000Y-102250000D03*
X154000000Y-102250000D03*
X146000000Y-97750000D03*
X154000000Y-97750000D03*
M02*
