G04 #@! TF.GenerationSoftware,KiCad,Pcbnew,6.0.2+dfsg-1*
G04 #@! TF.CreationDate,2022-08-27T16:00:58-04:00*
G04 #@! TF.ProjectId,ornament,6f726e61-6d65-46e7-942e-6b696361645f,rev?*
G04 #@! TF.SameCoordinates,Original*
G04 #@! TF.FileFunction,Paste,Top*
G04 #@! TF.FilePolarity,Positive*
%FSLAX46Y46*%
G04 Gerber Fmt 4.6, Leading zero omitted, Abs format (unit mm)*
G04 Created by KiCad (PCBNEW 6.0.2+dfsg-1) date 2022-08-27 16:00:58*
%MOMM*%
%LPD*%
G01*
G04 APERTURE LIST*
G04 Aperture macros list*
%AMRoundRect*
0 Rectangle with rounded corners*
0 $1 Rounding radius*
0 $2 $3 $4 $5 $6 $7 $8 $9 X,Y pos of 4 corners*
0 Add a 4 corners polygon primitive as box body*
4,1,4,$2,$3,$4,$5,$6,$7,$8,$9,$2,$3,0*
0 Add four circle primitives for the rounded corners*
1,1,$1+$1,$2,$3*
1,1,$1+$1,$4,$5*
1,1,$1+$1,$6,$7*
1,1,$1+$1,$8,$9*
0 Add four rect primitives between the rounded corners*
20,1,$1+$1,$2,$3,$4,$5,0*
20,1,$1+$1,$4,$5,$6,$7,0*
20,1,$1+$1,$6,$7,$8,$9,0*
20,1,$1+$1,$8,$9,$2,$3,0*%
%AMRotRect*
0 Rectangle, with rotation*
0 The origin of the aperture is its center*
0 $1 length*
0 $2 width*
0 $3 Rotation angle, in degrees counterclockwise*
0 Add horizontal line*
21,1,$1,$2,0,0,$3*%
G04 Aperture macros list end*
%ADD10RoundRect,0.250000X-0.475000X0.250000X-0.475000X-0.250000X0.475000X-0.250000X0.475000X0.250000X0*%
%ADD11RoundRect,0.250000X-0.256467X0.471540X-0.533889X0.055563X0.256467X-0.471540X0.533889X-0.055563X0*%
%ADD12RoundRect,0.250000X0.152079X0.514778X-0.338228X0.416805X-0.152079X-0.514778X0.338228X-0.416805X0*%
%ADD13RoundRect,0.250000X0.471540X0.256467X0.055563X0.533889X-0.471540X-0.256467X-0.055563X-0.533889X0*%
%ADD14RoundRect,0.250000X-0.250000X-0.475000X0.250000X-0.475000X0.250000X0.475000X-0.250000X0.475000X0*%
%ADD15RotRect,1.000000X0.500000X247.500000*%
%ADD16RotRect,0.800000X0.500000X157.500000*%
%ADD17RotRect,0.800000X0.300000X157.500000*%
%ADD18RotRect,1.480000X0.500000X247.500000*%
%ADD19RotRect,0.800000X0.500000X135.000000*%
%ADD20RotRect,1.000000X0.500000X225.000000*%
%ADD21RotRect,0.800000X0.300000X135.000000*%
%ADD22RotRect,1.480000X0.500000X225.000000*%
%ADD23RotRect,0.800000X0.500000X112.500000*%
%ADD24RotRect,1.000000X0.500000X202.500000*%
%ADD25RotRect,0.800000X0.300000X112.500000*%
%ADD26RotRect,1.480000X0.500000X202.500000*%
%ADD27RotRect,0.800000X0.500000X22.500000*%
%ADD28RotRect,1.000000X0.500000X112.500000*%
%ADD29RotRect,0.800000X0.300000X22.500000*%
%ADD30RotRect,1.480000X0.500000X112.500000*%
%ADD31R,1.000000X0.500000*%
%ADD32R,0.500000X0.800000*%
%ADD33R,0.300000X0.800000*%
%ADD34R,1.480000X0.500000*%
%ADD35RoundRect,0.250000X-0.450000X0.262500X-0.450000X-0.262500X0.450000X-0.262500X0.450000X0.262500X0*%
%ADD36RoundRect,0.150000X-0.825000X-0.150000X0.825000X-0.150000X0.825000X0.150000X-0.825000X0.150000X0*%
%ADD37R,0.500000X1.000000*%
%ADD38R,0.800000X0.500000*%
%ADD39R,0.800000X0.300000*%
%ADD40R,0.500000X1.480000*%
%ADD41RotRect,1.000000X0.500000X45.000000*%
%ADD42RotRect,0.800000X0.500000X315.000000*%
%ADD43RotRect,0.800000X0.300000X315.000000*%
%ADD44RotRect,1.480000X0.500000X45.000000*%
%ADD45RotRect,0.800000X0.500000X45.000000*%
%ADD46RotRect,1.000000X0.500000X135.000000*%
%ADD47RotRect,0.800000X0.300000X45.000000*%
%ADD48RotRect,1.480000X0.500000X135.000000*%
%ADD49RotRect,0.800000X0.500000X337.500000*%
%ADD50RotRect,1.000000X0.500000X67.500000*%
%ADD51RotRect,0.800000X0.300000X337.500000*%
%ADD52RotRect,1.480000X0.500000X67.500000*%
%ADD53RotRect,0.800000X0.500000X67.500000*%
%ADD54RotRect,1.000000X0.500000X157.500000*%
%ADD55RotRect,0.800000X0.300000X67.500000*%
%ADD56RotRect,1.480000X0.500000X157.500000*%
%ADD57RotRect,1.000000X0.500000X22.500000*%
%ADD58RotRect,0.800000X0.500000X292.500000*%
%ADD59RotRect,0.800000X0.300000X292.500000*%
%ADD60RotRect,1.480000X0.500000X22.500000*%
%ADD61RotRect,1.000000X0.500000X292.500000*%
%ADD62RotRect,0.800000X0.500000X202.500000*%
%ADD63RotRect,0.800000X0.300000X202.500000*%
%ADD64RotRect,1.480000X0.500000X292.500000*%
%ADD65RotRect,1.000000X0.500000X315.000000*%
%ADD66RotRect,0.800000X0.500000X225.000000*%
%ADD67RotRect,0.800000X0.300000X225.000000*%
%ADD68RotRect,1.480000X0.500000X315.000000*%
%ADD69RotRect,0.800000X0.500000X247.500000*%
%ADD70RotRect,1.000000X0.500000X337.500000*%
%ADD71RotRect,0.800000X0.300000X247.500000*%
%ADD72RotRect,1.480000X0.500000X337.500000*%
%ADD73RoundRect,0.250000X-0.338228X-0.416805X0.152079X-0.514778X0.338228X0.416805X-0.152079X0.514778X0*%
%ADD74RoundRect,0.250000X-0.533889X-0.055563X-0.256467X-0.471540X0.533889X0.055563X0.256467X0.471540X0*%
%ADD75RoundRect,0.250000X0.262500X0.450000X-0.262500X0.450000X-0.262500X-0.450000X0.262500X-0.450000X0*%
%ADD76RoundRect,0.250000X0.055563X-0.533889X0.471540X-0.256467X-0.055563X0.533889X-0.471540X0.256467X0*%
G04 APERTURE END LIST*
D10*
X156000000Y-88050000D03*
X156000000Y-89950000D03*
D11*
X142182668Y-111674411D03*
X141128464Y-113255123D03*
D12*
X136217257Y-102727366D03*
X134354089Y-103099664D03*
D13*
X138325589Y-92182668D03*
X136744877Y-91128464D03*
D10*
X144000000Y-88050000D03*
X144000000Y-89950000D03*
D14*
X146100000Y-94400000D03*
X148000000Y-94400000D03*
D15*
X156187991Y-85060868D03*
D16*
X156946501Y-85450820D03*
D17*
X157290916Y-84619329D03*
D16*
X157635331Y-83787837D03*
X156064735Y-83137276D03*
D17*
X155720320Y-83968767D03*
D18*
X156731401Y-83748959D03*
D16*
X155375905Y-84800259D03*
D19*
X161985460Y-89216622D03*
D20*
X161433916Y-88566084D03*
D21*
X162621856Y-88580226D03*
D19*
X163258252Y-87943830D03*
X162056170Y-86741748D03*
D21*
X161419774Y-87378144D03*
D19*
X160783378Y-88014540D03*
D22*
X162438008Y-87561992D03*
D23*
X165199741Y-94624095D03*
D24*
X164939132Y-93812009D03*
D25*
X166031233Y-94279680D03*
D23*
X166862724Y-93935265D03*
X166212163Y-92364669D03*
D25*
X165380671Y-92709084D03*
D26*
X166251041Y-93268599D03*
D23*
X164549180Y-93053499D03*
D27*
X155375905Y-115199741D03*
D28*
X156187991Y-114939132D03*
D29*
X155720320Y-116031233D03*
D27*
X156064735Y-116862724D03*
X157635331Y-116212163D03*
D29*
X157290916Y-115380671D03*
D27*
X156946501Y-114549180D03*
D30*
X156731401Y-116251041D03*
D31*
X133830000Y-100000000D03*
D32*
X133900000Y-99150000D03*
D33*
X133000000Y-99150000D03*
D32*
X132100000Y-99150000D03*
X132100000Y-100850000D03*
D33*
X133000000Y-100850000D03*
D34*
X132410000Y-100000000D03*
D32*
X133900000Y-100850000D03*
D35*
X150876000Y-86106000D03*
X150876000Y-87931000D03*
X152781000Y-86107900D03*
X152781000Y-87932900D03*
D36*
X147525000Y-96190000D03*
X147525000Y-97460000D03*
X147525000Y-98730000D03*
X147525000Y-100000000D03*
X147525000Y-101270000D03*
X147525000Y-102540000D03*
X147525000Y-103810000D03*
X152475000Y-103810000D03*
X152475000Y-102540000D03*
X152475000Y-101270000D03*
X152475000Y-100000000D03*
X152475000Y-98730000D03*
X152475000Y-97460000D03*
X152475000Y-96190000D03*
D37*
X150000000Y-83830000D03*
D38*
X150850000Y-83900000D03*
D39*
X150850000Y-83000000D03*
D38*
X150850000Y-82100000D03*
X149150000Y-82100000D03*
D39*
X149150000Y-83000000D03*
D38*
X149150000Y-83900000D03*
D40*
X150000000Y-82410000D03*
D41*
X138566084Y-111433916D03*
D42*
X138014540Y-110783378D03*
D43*
X137378144Y-111419774D03*
D42*
X136741748Y-112056170D03*
X137943830Y-113258252D03*
D43*
X138580226Y-112621856D03*
D42*
X139216622Y-111985460D03*
D44*
X137561992Y-112438008D03*
D45*
X160783378Y-111985460D03*
D46*
X161433916Y-111433916D03*
D47*
X161419774Y-112621856D03*
D45*
X162056170Y-113258252D03*
X163258252Y-112056170D03*
D47*
X162621856Y-111419774D03*
D48*
X162438008Y-112438008D03*
D45*
X161985460Y-110783378D03*
D49*
X143053499Y-114549180D03*
D50*
X143812009Y-114939132D03*
D51*
X142709084Y-115380671D03*
D49*
X142364669Y-116212163D03*
X143935265Y-116862724D03*
D51*
X144279680Y-116031233D03*
D52*
X143268599Y-116251041D03*
D49*
X144624095Y-115199741D03*
D53*
X164549180Y-106946501D03*
D54*
X164939132Y-106187991D03*
D55*
X165380671Y-107290916D03*
D53*
X166212163Y-107635331D03*
X166862724Y-106064735D03*
D55*
X166031233Y-105720320D03*
D53*
X165199741Y-105375905D03*
D56*
X166251041Y-106731401D03*
D32*
X166100000Y-100850000D03*
D31*
X166170000Y-100000000D03*
D33*
X167000000Y-100850000D03*
D32*
X167900000Y-100850000D03*
X167900000Y-99150000D03*
D33*
X167000000Y-99150000D03*
D34*
X167590000Y-100000000D03*
D32*
X166100000Y-99150000D03*
D35*
X147066000Y-86106000D03*
X147066000Y-87931000D03*
X148971000Y-86106000D03*
X148971000Y-87931000D03*
D57*
X135060868Y-106187991D03*
D58*
X134800259Y-105375905D03*
D59*
X133968767Y-105720320D03*
D58*
X133137276Y-106064735D03*
X133787837Y-107635331D03*
D59*
X134619329Y-107290916D03*
D60*
X133748959Y-106731401D03*
D58*
X135450820Y-106946501D03*
D61*
X143812009Y-85060868D03*
D62*
X144624095Y-84800259D03*
D63*
X144279680Y-83968767D03*
D62*
X143935265Y-83137276D03*
X142364669Y-83787837D03*
D63*
X142709084Y-84619329D03*
D64*
X143268599Y-83748959D03*
D62*
X143053499Y-85450820D03*
D37*
X150000000Y-116170000D03*
D38*
X149150000Y-116100000D03*
D39*
X149150000Y-117000000D03*
D38*
X149150000Y-117900000D03*
X150850000Y-117900000D03*
D39*
X150850000Y-117000000D03*
D38*
X150850000Y-116100000D03*
D40*
X150000000Y-117590000D03*
D65*
X138566084Y-88566084D03*
D66*
X139216622Y-88014540D03*
D67*
X138580226Y-87378144D03*
D66*
X137943830Y-86741748D03*
X136741748Y-87943830D03*
D67*
X137378144Y-88580226D03*
D66*
X138014540Y-89216622D03*
D68*
X137561992Y-87561992D03*
D69*
X135450820Y-93053499D03*
D70*
X135060868Y-93812009D03*
D71*
X134619329Y-92709084D03*
D69*
X133787837Y-92364669D03*
X133137276Y-93935265D03*
D71*
X133968767Y-94279680D03*
D72*
X133748959Y-93268599D03*
D69*
X134800259Y-94624095D03*
D73*
X163777635Y-102753043D03*
X165640803Y-103125341D03*
D74*
X157795564Y-111688955D03*
X158849768Y-113269667D03*
D75*
X153825000Y-94400000D03*
X152000000Y-94400000D03*
D14*
X149103000Y-112649000D03*
X151003000Y-112649000D03*
D76*
X161688955Y-92204436D03*
X163269667Y-91150232D03*
M02*
