%FSLAX45Y45*%
G04 Gerber Fmt 4.5, Leading zero omitted, Abs format (unit mm)*
G04 Created by KiCad (PCBNEW 6.0.2+dfsg-1) date 2022-08-27 16:01:28*
%MOMM*%
%LPD*%
G01*
G04 APERTURE LIST*
%TA.AperFunction,Profile*%
%ADD10C,0.050000*%
%TD*%
%ADD11C,0.200000*%
%ADD12C,0.040000*%
%ADD13C,0.060000*%
%ADD14C,0.085000*%
G04 APERTURE END LIST*
D10*
X17000000Y-10000000D02*
G75*
G03*
X17000000Y-10000000I-2000000J0D01*
G01*
D11*
D12*
X13086400Y-9987600D02*
X13126400Y-10027600D01*
X13126400Y-9987600D02*
X13086400Y-10027600D01*
X13238800Y-9251000D02*
X13278800Y-9291000D01*
X13278800Y-9251000D02*
X13238800Y-9291000D01*
X13238800Y-10698800D02*
X13278800Y-10738800D01*
X13278800Y-10698800D02*
X13238800Y-10738800D01*
X13467400Y-9555800D02*
X13507400Y-9595800D01*
X13507400Y-9555800D02*
X13467400Y-9595800D01*
X13467400Y-10114600D02*
X13507400Y-10154600D01*
X13507400Y-10114600D02*
X13467400Y-10154600D01*
X13645200Y-8641400D02*
X13685200Y-8681400D01*
X13685200Y-8641400D02*
X13645200Y-8681400D01*
X13645200Y-10724200D02*
X13685200Y-10764200D01*
X13685200Y-10724200D02*
X13645200Y-10764200D01*
X13645200Y-11308400D02*
X13685200Y-11348400D01*
X13685200Y-11308400D02*
X13645200Y-11348400D01*
X13797600Y-9022400D02*
X13837600Y-9062400D01*
X13837600Y-9022400D02*
X13797600Y-9062400D01*
X14026200Y-11156000D02*
X14066200Y-11196000D01*
X14066200Y-11156000D02*
X14026200Y-11196000D01*
X14204000Y-8616000D02*
X14244000Y-8656000D01*
X14244000Y-8616000D02*
X14204000Y-8656000D01*
X14254800Y-8235000D02*
X14294800Y-8275000D01*
X14294800Y-8235000D02*
X14254800Y-8275000D01*
X14254800Y-11714800D02*
X14294800Y-11754800D01*
X14294800Y-11714800D02*
X14254800Y-11754800D01*
X14381800Y-9047800D02*
X14421800Y-9087800D01*
X14421800Y-9047800D02*
X14381800Y-9087800D01*
X14458000Y-9403400D02*
X14498000Y-9443400D01*
X14498000Y-9403400D02*
X14458000Y-9443400D01*
X14686600Y-8844600D02*
X14726600Y-8884600D01*
X14726600Y-8844600D02*
X14686600Y-8884600D01*
X14864400Y-9847900D02*
X14904400Y-9887900D01*
X14904400Y-9847900D02*
X14864400Y-9887900D01*
X14889800Y-8362000D02*
X14929800Y-8402000D01*
X14929800Y-8362000D02*
X14889800Y-8402000D01*
X14902500Y-10140000D02*
X14942500Y-10180000D01*
X14942500Y-10140000D02*
X14902500Y-10180000D01*
X14907500Y-10267000D02*
X14947500Y-10307000D01*
X14947500Y-10267000D02*
X14907500Y-10307000D01*
X14915200Y-9225600D02*
X14955200Y-9265600D01*
X14955200Y-9225600D02*
X14915200Y-9265600D01*
X14940600Y-8857300D02*
X14980600Y-8897300D01*
X14980600Y-8857300D02*
X14940600Y-8897300D01*
X14966000Y-8108000D02*
X15006000Y-8148000D01*
X15006000Y-8108000D02*
X14966000Y-8148000D01*
X15067600Y-8844600D02*
X15107600Y-8884600D01*
X15107600Y-8844600D02*
X15067600Y-8884600D01*
X15118400Y-10101900D02*
X15158400Y-10141900D01*
X15158400Y-10101900D02*
X15118400Y-10141900D01*
X15118400Y-10241600D02*
X15158400Y-10281600D01*
X15158400Y-10241600D02*
X15118400Y-10281600D01*
X15169200Y-9200200D02*
X15209200Y-9240200D01*
X15209200Y-9200200D02*
X15169200Y-9240200D01*
X15169200Y-11232200D02*
X15209200Y-11272200D01*
X15209200Y-11232200D02*
X15169200Y-11272200D01*
X15270800Y-8844600D02*
X15310800Y-8884600D01*
X15310800Y-8844600D02*
X15270800Y-8884600D01*
X15270800Y-11359200D02*
X15310800Y-11399200D01*
X15310800Y-11359200D02*
X15270800Y-11399200D01*
X15385100Y-10355900D02*
X15425100Y-10395900D01*
X15425100Y-10355900D02*
X15385100Y-10395900D01*
X15423200Y-9301800D02*
X15463200Y-9341800D01*
X15463200Y-9301800D02*
X15423200Y-9341800D01*
X15448600Y-8565200D02*
X15488600Y-8605200D01*
X15488600Y-8565200D02*
X15448600Y-8605200D01*
X15474000Y-9174800D02*
X15514000Y-9214800D01*
X15514000Y-9174800D02*
X15474000Y-9214800D01*
X15474000Y-9606600D02*
X15514000Y-9646600D01*
X15514000Y-9606600D02*
X15474000Y-9646600D01*
X15550200Y-9708200D02*
X15590200Y-9748200D01*
X15590200Y-9708200D02*
X15550200Y-9748200D01*
X15575600Y-9047800D02*
X15615600Y-9087800D01*
X15615600Y-9047800D02*
X15575600Y-9087800D01*
X15651800Y-11308400D02*
X15691800Y-11348400D01*
X15691800Y-11308400D02*
X15651800Y-11348400D01*
X15702600Y-8260400D02*
X15742600Y-8300400D01*
X15742600Y-8260400D02*
X15702600Y-8300400D01*
X15702600Y-11714800D02*
X15742600Y-11754800D01*
X15742600Y-11714800D02*
X15702600Y-11754800D01*
X16210600Y-10927400D02*
X16250600Y-10967400D01*
X16250600Y-10927400D02*
X16210600Y-10967400D01*
X16312200Y-8641400D02*
X16352200Y-8681400D01*
X16352200Y-8641400D02*
X16312200Y-8681400D01*
X16312200Y-9276400D02*
X16352200Y-9316400D01*
X16352200Y-9276400D02*
X16312200Y-9316400D01*
X16312200Y-11308400D02*
X16352200Y-11348400D01*
X16352200Y-11308400D02*
X16312200Y-11348400D01*
X16413800Y-10419400D02*
X16453800Y-10459400D01*
X16453800Y-10419400D02*
X16413800Y-10459400D01*
X16540800Y-9784400D02*
X16580800Y-9824400D01*
X16580800Y-9784400D02*
X16540800Y-9824400D01*
X16718600Y-9251000D02*
X16758600Y-9291000D01*
X16758600Y-9251000D02*
X16718600Y-9291000D01*
X16718600Y-10698800D02*
X16758600Y-10738800D01*
X16758600Y-10698800D02*
X16718600Y-10738800D01*
X16871000Y-9987600D02*
X16911000Y-10027600D01*
X16911000Y-9987600D02*
X16871000Y-10027600D01*
D13*
X14680000Y-11823750D02*
G75*
G03*
X14680000Y-11823750I-30000J0D01*
G01*
D11*
X14670000Y-11858750D02*
X14670000Y-11788750D01*
X14630000Y-11858750D02*
X14630000Y-11788750D01*
X14670000Y-11788750D02*
G75*
G03*
X14630000Y-11788750I-20000J0D01*
G01*
X14630000Y-11858750D02*
G75*
G03*
X14670000Y-11858750I20000J0D01*
G01*
D13*
X15380000Y-11823750D02*
G75*
G03*
X15380000Y-11823750I-30000J0D01*
G01*
D11*
X15330000Y-11788750D02*
X15330000Y-11858750D01*
X15370000Y-11788750D02*
X15370000Y-11858750D01*
X15330000Y-11858750D02*
G75*
G03*
X15370000Y-11858750I20000J0D01*
G01*
X15370000Y-11788750D02*
G75*
G03*
X15330000Y-11788750I-20000J0D01*
G01*
D14*
X14750000Y-11511250D02*
X14750000Y-11596250D01*
X14707500Y-11553750D02*
X14792500Y-11553750D01*
X15250000Y-11511250D02*
X15250000Y-11596250D01*
X15207500Y-11553750D02*
X15292500Y-11553750D01*
D11*
X14070711Y-9737711D02*
X14070711Y-9596289D01*
X13929289Y-9596289D01*
X13929289Y-9737711D01*
X14070711Y-9737711D01*
X14070711Y-10403711D02*
X14070711Y-10262289D01*
X13929289Y-10262289D01*
X13929289Y-10403711D01*
X14070711Y-10403711D01*
X15070711Y-10870711D02*
X15070711Y-10729289D01*
X14929289Y-10729289D01*
X14929289Y-10870711D01*
X15070711Y-10870711D01*
X16070711Y-9737711D02*
X16070711Y-9596289D01*
X15929289Y-9596289D01*
X15929289Y-9737711D01*
X16070711Y-9737711D01*
X16070711Y-10403711D02*
X16070711Y-10262289D01*
X15929289Y-10262289D01*
X15929289Y-10403711D01*
X16070711Y-10403711D01*
X13255119Y-12312976D02*
X13255119Y-12112976D01*
X13302738Y-12112976D01*
X13331309Y-12122500D01*
X13350357Y-12141548D01*
X13359881Y-12160595D01*
X13369405Y-12198690D01*
X13369405Y-12227262D01*
X13359881Y-12265357D01*
X13350357Y-12284405D01*
X13331309Y-12303452D01*
X13302738Y-12312976D01*
X13255119Y-12312976D01*
X13455119Y-12312976D02*
X13455119Y-12179643D01*
X13455119Y-12217738D02*
X13464643Y-12198690D01*
X13474167Y-12189167D01*
X13493214Y-12179643D01*
X13512262Y-12179643D01*
X13578928Y-12312976D02*
X13578928Y-12179643D01*
X13578928Y-12112976D02*
X13569405Y-12122500D01*
X13578928Y-12132024D01*
X13588452Y-12122500D01*
X13578928Y-12112976D01*
X13578928Y-12132024D01*
X13702738Y-12312976D02*
X13683690Y-12303452D01*
X13674167Y-12284405D01*
X13674167Y-12112976D01*
X13807500Y-12312976D02*
X13788452Y-12303452D01*
X13778928Y-12284405D01*
X13778928Y-12112976D01*
X14036071Y-12312976D02*
X14036071Y-12112976D01*
X14102738Y-12255833D01*
X14169405Y-12112976D01*
X14169405Y-12312976D01*
X14350357Y-12312976D02*
X14350357Y-12208214D01*
X14340833Y-12189167D01*
X14321786Y-12179643D01*
X14283690Y-12179643D01*
X14264643Y-12189167D01*
X14350357Y-12303452D02*
X14331309Y-12312976D01*
X14283690Y-12312976D01*
X14264643Y-12303452D01*
X14255119Y-12284405D01*
X14255119Y-12265357D01*
X14264643Y-12246309D01*
X14283690Y-12236786D01*
X14331309Y-12236786D01*
X14350357Y-12227262D01*
X14445595Y-12179643D02*
X14445595Y-12379643D01*
X14445595Y-12189167D02*
X14464643Y-12179643D01*
X14502738Y-12179643D01*
X14521786Y-12189167D01*
X14531309Y-12198690D01*
X14540833Y-12217738D01*
X14540833Y-12274881D01*
X14531309Y-12293928D01*
X14521786Y-12303452D01*
X14502738Y-12312976D01*
X14464643Y-12312976D01*
X14445595Y-12303452D01*
X14626548Y-12293928D02*
X14636071Y-12303452D01*
X14626548Y-12312976D01*
X14617024Y-12303452D01*
X14626548Y-12293928D01*
X14626548Y-12312976D01*
X14626548Y-12189167D02*
X14636071Y-12198690D01*
X14626548Y-12208214D01*
X14617024Y-12198690D01*
X14626548Y-12189167D01*
X14626548Y-12208214D01*
D12*
X12957500Y-12622500D02*
X12997500Y-12662500D01*
X12997500Y-12622500D02*
X12957500Y-12662500D01*
D11*
X13293214Y-12532976D02*
X13312262Y-12532976D01*
X13331309Y-12542500D01*
X13340833Y-12552024D01*
X13350357Y-12571071D01*
X13359881Y-12609167D01*
X13359881Y-12656786D01*
X13350357Y-12694881D01*
X13340833Y-12713928D01*
X13331309Y-12723452D01*
X13312262Y-12732976D01*
X13293214Y-12732976D01*
X13274167Y-12723452D01*
X13264643Y-12713928D01*
X13255119Y-12694881D01*
X13245595Y-12656786D01*
X13245595Y-12609167D01*
X13255119Y-12571071D01*
X13264643Y-12552024D01*
X13274167Y-12542500D01*
X13293214Y-12532976D01*
X13445595Y-12713928D02*
X13455119Y-12723452D01*
X13445595Y-12732976D01*
X13436071Y-12723452D01*
X13445595Y-12713928D01*
X13445595Y-12732976D01*
X13626548Y-12599643D02*
X13626548Y-12732976D01*
X13578928Y-12523452D02*
X13531309Y-12666309D01*
X13655119Y-12666309D01*
X13769405Y-12532976D02*
X13788452Y-12532976D01*
X13807500Y-12542500D01*
X13817024Y-12552024D01*
X13826548Y-12571071D01*
X13836071Y-12609167D01*
X13836071Y-12656786D01*
X13826548Y-12694881D01*
X13817024Y-12713928D01*
X13807500Y-12723452D01*
X13788452Y-12732976D01*
X13769405Y-12732976D01*
X13750357Y-12723452D01*
X13740833Y-12713928D01*
X13731309Y-12694881D01*
X13721786Y-12656786D01*
X13721786Y-12609167D01*
X13731309Y-12571071D01*
X13740833Y-12552024D01*
X13750357Y-12542500D01*
X13769405Y-12532976D01*
X13959881Y-12532976D02*
X13978928Y-12532976D01*
X13997976Y-12542500D01*
X14007500Y-12552024D01*
X14017024Y-12571071D01*
X14026548Y-12609167D01*
X14026548Y-12656786D01*
X14017024Y-12694881D01*
X14007500Y-12713928D01*
X13997976Y-12723452D01*
X13978928Y-12732976D01*
X13959881Y-12732976D01*
X13940833Y-12723452D01*
X13931309Y-12713928D01*
X13921786Y-12694881D01*
X13912262Y-12656786D01*
X13912262Y-12609167D01*
X13921786Y-12571071D01*
X13931309Y-12552024D01*
X13940833Y-12542500D01*
X13959881Y-12532976D01*
X14112262Y-12732976D02*
X14112262Y-12599643D01*
X14112262Y-12618690D02*
X14121786Y-12609167D01*
X14140833Y-12599643D01*
X14169405Y-12599643D01*
X14188452Y-12609167D01*
X14197976Y-12628214D01*
X14197976Y-12732976D01*
X14197976Y-12628214D02*
X14207500Y-12609167D01*
X14226548Y-12599643D01*
X14255119Y-12599643D01*
X14274167Y-12609167D01*
X14283690Y-12628214D01*
X14283690Y-12732976D01*
X14378928Y-12732976D02*
X14378928Y-12599643D01*
X14378928Y-12618690D02*
X14388452Y-12609167D01*
X14407500Y-12599643D01*
X14436071Y-12599643D01*
X14455119Y-12609167D01*
X14464643Y-12628214D01*
X14464643Y-12732976D01*
X14464643Y-12628214D02*
X14474167Y-12609167D01*
X14493214Y-12599643D01*
X14521786Y-12599643D01*
X14540833Y-12609167D01*
X14550357Y-12628214D01*
X14550357Y-12732976D01*
X14940833Y-12523452D02*
X14769405Y-12780595D01*
X15197976Y-12532976D02*
X15217024Y-12532976D01*
X15236071Y-12542500D01*
X15245595Y-12552024D01*
X15255119Y-12571071D01*
X15264643Y-12609167D01*
X15264643Y-12656786D01*
X15255119Y-12694881D01*
X15245595Y-12713928D01*
X15236071Y-12723452D01*
X15217024Y-12732976D01*
X15197976Y-12732976D01*
X15178928Y-12723452D01*
X15169405Y-12713928D01*
X15159881Y-12694881D01*
X15150357Y-12656786D01*
X15150357Y-12609167D01*
X15159881Y-12571071D01*
X15169405Y-12552024D01*
X15178928Y-12542500D01*
X15197976Y-12532976D01*
X15350357Y-12713928D02*
X15359881Y-12723452D01*
X15350357Y-12732976D01*
X15340833Y-12723452D01*
X15350357Y-12713928D01*
X15350357Y-12732976D01*
X15483690Y-12532976D02*
X15502738Y-12532976D01*
X15521786Y-12542500D01*
X15531309Y-12552024D01*
X15540833Y-12571071D01*
X15550357Y-12609167D01*
X15550357Y-12656786D01*
X15540833Y-12694881D01*
X15531309Y-12713928D01*
X15521786Y-12723452D01*
X15502738Y-12732976D01*
X15483690Y-12732976D01*
X15464643Y-12723452D01*
X15455119Y-12713928D01*
X15445595Y-12694881D01*
X15436071Y-12656786D01*
X15436071Y-12609167D01*
X15445595Y-12571071D01*
X15455119Y-12552024D01*
X15464643Y-12542500D01*
X15483690Y-12532976D01*
X15740833Y-12732976D02*
X15626548Y-12732976D01*
X15683690Y-12732976D02*
X15683690Y-12532976D01*
X15664643Y-12561548D01*
X15645595Y-12580595D01*
X15626548Y-12590119D01*
X15921786Y-12532976D02*
X15826548Y-12532976D01*
X15817024Y-12628214D01*
X15826548Y-12618690D01*
X15845595Y-12609167D01*
X15893214Y-12609167D01*
X15912262Y-12618690D01*
X15921786Y-12628214D01*
X15931309Y-12647262D01*
X15931309Y-12694881D01*
X15921786Y-12713928D01*
X15912262Y-12723452D01*
X15893214Y-12732976D01*
X15845595Y-12732976D01*
X15826548Y-12723452D01*
X15817024Y-12713928D01*
X15997976Y-12532976D02*
X16131309Y-12532976D01*
X16045595Y-12732976D01*
X16197976Y-12532976D02*
X16197976Y-12571071D01*
X16274167Y-12532976D02*
X16274167Y-12571071D01*
X16569405Y-12809167D02*
X16559881Y-12799643D01*
X16540833Y-12771071D01*
X16531309Y-12752024D01*
X16521786Y-12723452D01*
X16512262Y-12675833D01*
X16512262Y-12637738D01*
X16521786Y-12590119D01*
X16531309Y-12561548D01*
X16540833Y-12542500D01*
X16559881Y-12513928D01*
X16569405Y-12504405D01*
X16731309Y-12599643D02*
X16731309Y-12732976D01*
X16683690Y-12523452D02*
X16636071Y-12666309D01*
X16759881Y-12666309D01*
X16845595Y-12732976D02*
X16883690Y-12732976D01*
X16902738Y-12723452D01*
X16912262Y-12713928D01*
X16931310Y-12685357D01*
X16940833Y-12647262D01*
X16940833Y-12571071D01*
X16931310Y-12552024D01*
X16921786Y-12542500D01*
X16902738Y-12532976D01*
X16864643Y-12532976D01*
X16845595Y-12542500D01*
X16836071Y-12552024D01*
X16826548Y-12571071D01*
X16826548Y-12618690D01*
X16836071Y-12637738D01*
X16845595Y-12647262D01*
X16864643Y-12656786D01*
X16902738Y-12656786D01*
X16921786Y-12647262D01*
X16931310Y-12637738D01*
X16940833Y-12618690D01*
X17178929Y-12732976D02*
X17178929Y-12532976D01*
X17264643Y-12732976D02*
X17264643Y-12628214D01*
X17255119Y-12609167D01*
X17236071Y-12599643D01*
X17207500Y-12599643D01*
X17188452Y-12609167D01*
X17178929Y-12618690D01*
X17388452Y-12732976D02*
X17369405Y-12723452D01*
X17359881Y-12713928D01*
X17350357Y-12694881D01*
X17350357Y-12637738D01*
X17359881Y-12618690D01*
X17369405Y-12609167D01*
X17388452Y-12599643D01*
X17417024Y-12599643D01*
X17436071Y-12609167D01*
X17445595Y-12618690D01*
X17455119Y-12637738D01*
X17455119Y-12694881D01*
X17445595Y-12713928D01*
X17436071Y-12723452D01*
X17417024Y-12732976D01*
X17388452Y-12732976D01*
X17569405Y-12732976D02*
X17550357Y-12723452D01*
X17540833Y-12704405D01*
X17540833Y-12532976D01*
X17721786Y-12723452D02*
X17702738Y-12732976D01*
X17664643Y-12732976D01*
X17645595Y-12723452D01*
X17636071Y-12704405D01*
X17636071Y-12628214D01*
X17645595Y-12609167D01*
X17664643Y-12599643D01*
X17702738Y-12599643D01*
X17721786Y-12609167D01*
X17731310Y-12628214D01*
X17731310Y-12647262D01*
X17636071Y-12666309D01*
X17807500Y-12723452D02*
X17826548Y-12732976D01*
X17864643Y-12732976D01*
X17883690Y-12723452D01*
X17893214Y-12704405D01*
X17893214Y-12694881D01*
X17883690Y-12675833D01*
X17864643Y-12666309D01*
X17836071Y-12666309D01*
X17817024Y-12656786D01*
X17807500Y-12637738D01*
X17807500Y-12628214D01*
X17817024Y-12609167D01*
X17836071Y-12599643D01*
X17864643Y-12599643D01*
X17883690Y-12609167D01*
X17959881Y-12809167D02*
X17969405Y-12799643D01*
X17988452Y-12771071D01*
X17997976Y-12752024D01*
X18007500Y-12723452D01*
X18017024Y-12675833D01*
X18017024Y-12637738D01*
X18007500Y-12590119D01*
X17997976Y-12561548D01*
X17988452Y-12542500D01*
X17969405Y-12513928D01*
X17959881Y-12504405D01*
D13*
X12997500Y-12906500D02*
G75*
G03*
X12997500Y-12906500I-30000J0D01*
G01*
D11*
X13293214Y-12796976D02*
X13312262Y-12796976D01*
X13331309Y-12806500D01*
X13340833Y-12816024D01*
X13350357Y-12835071D01*
X13359881Y-12873167D01*
X13359881Y-12920786D01*
X13350357Y-12958881D01*
X13340833Y-12977928D01*
X13331309Y-12987452D01*
X13312262Y-12996976D01*
X13293214Y-12996976D01*
X13274167Y-12987452D01*
X13264643Y-12977928D01*
X13255119Y-12958881D01*
X13245595Y-12920786D01*
X13245595Y-12873167D01*
X13255119Y-12835071D01*
X13264643Y-12816024D01*
X13274167Y-12806500D01*
X13293214Y-12796976D01*
X13445595Y-12977928D02*
X13455119Y-12987452D01*
X13445595Y-12996976D01*
X13436071Y-12987452D01*
X13445595Y-12977928D01*
X13445595Y-12996976D01*
X13626548Y-12796976D02*
X13588452Y-12796976D01*
X13569405Y-12806500D01*
X13559881Y-12816024D01*
X13540833Y-12844595D01*
X13531309Y-12882690D01*
X13531309Y-12958881D01*
X13540833Y-12977928D01*
X13550357Y-12987452D01*
X13569405Y-12996976D01*
X13607500Y-12996976D01*
X13626548Y-12987452D01*
X13636071Y-12977928D01*
X13645595Y-12958881D01*
X13645595Y-12911262D01*
X13636071Y-12892214D01*
X13626548Y-12882690D01*
X13607500Y-12873167D01*
X13569405Y-12873167D01*
X13550357Y-12882690D01*
X13540833Y-12892214D01*
X13531309Y-12911262D01*
X13769405Y-12796976D02*
X13788452Y-12796976D01*
X13807500Y-12806500D01*
X13817024Y-12816024D01*
X13826548Y-12835071D01*
X13836071Y-12873167D01*
X13836071Y-12920786D01*
X13826548Y-12958881D01*
X13817024Y-12977928D01*
X13807500Y-12987452D01*
X13788452Y-12996976D01*
X13769405Y-12996976D01*
X13750357Y-12987452D01*
X13740833Y-12977928D01*
X13731309Y-12958881D01*
X13721786Y-12920786D01*
X13721786Y-12873167D01*
X13731309Y-12835071D01*
X13740833Y-12816024D01*
X13750357Y-12806500D01*
X13769405Y-12796976D01*
X13959881Y-12796976D02*
X13978928Y-12796976D01*
X13997976Y-12806500D01*
X14007500Y-12816024D01*
X14017024Y-12835071D01*
X14026548Y-12873167D01*
X14026548Y-12920786D01*
X14017024Y-12958881D01*
X14007500Y-12977928D01*
X13997976Y-12987452D01*
X13978928Y-12996976D01*
X13959881Y-12996976D01*
X13940833Y-12987452D01*
X13931309Y-12977928D01*
X13921786Y-12958881D01*
X13912262Y-12920786D01*
X13912262Y-12873167D01*
X13921786Y-12835071D01*
X13931309Y-12816024D01*
X13940833Y-12806500D01*
X13959881Y-12796976D01*
X14112262Y-12996976D02*
X14112262Y-12863643D01*
X14112262Y-12882690D02*
X14121786Y-12873167D01*
X14140833Y-12863643D01*
X14169405Y-12863643D01*
X14188452Y-12873167D01*
X14197976Y-12892214D01*
X14197976Y-12996976D01*
X14197976Y-12892214D02*
X14207500Y-12873167D01*
X14226548Y-12863643D01*
X14255119Y-12863643D01*
X14274167Y-12873167D01*
X14283690Y-12892214D01*
X14283690Y-12996976D01*
X14378928Y-12996976D02*
X14378928Y-12863643D01*
X14378928Y-12882690D02*
X14388452Y-12873167D01*
X14407500Y-12863643D01*
X14436071Y-12863643D01*
X14455119Y-12873167D01*
X14464643Y-12892214D01*
X14464643Y-12996976D01*
X14464643Y-12892214D02*
X14474167Y-12873167D01*
X14493214Y-12863643D01*
X14521786Y-12863643D01*
X14540833Y-12873167D01*
X14550357Y-12892214D01*
X14550357Y-12996976D01*
X14940833Y-12787452D02*
X14769405Y-13044595D01*
X15197976Y-12796976D02*
X15217024Y-12796976D01*
X15236071Y-12806500D01*
X15245595Y-12816024D01*
X15255119Y-12835071D01*
X15264643Y-12873167D01*
X15264643Y-12920786D01*
X15255119Y-12958881D01*
X15245595Y-12977928D01*
X15236071Y-12987452D01*
X15217024Y-12996976D01*
X15197976Y-12996976D01*
X15178928Y-12987452D01*
X15169405Y-12977928D01*
X15159881Y-12958881D01*
X15150357Y-12920786D01*
X15150357Y-12873167D01*
X15159881Y-12835071D01*
X15169405Y-12816024D01*
X15178928Y-12806500D01*
X15197976Y-12796976D01*
X15350357Y-12977928D02*
X15359881Y-12987452D01*
X15350357Y-12996976D01*
X15340833Y-12987452D01*
X15350357Y-12977928D01*
X15350357Y-12996976D01*
X15483690Y-12796976D02*
X15502738Y-12796976D01*
X15521786Y-12806500D01*
X15531309Y-12816024D01*
X15540833Y-12835071D01*
X15550357Y-12873167D01*
X15550357Y-12920786D01*
X15540833Y-12958881D01*
X15531309Y-12977928D01*
X15521786Y-12987452D01*
X15502738Y-12996976D01*
X15483690Y-12996976D01*
X15464643Y-12987452D01*
X15455119Y-12977928D01*
X15445595Y-12958881D01*
X15436071Y-12920786D01*
X15436071Y-12873167D01*
X15445595Y-12835071D01*
X15455119Y-12816024D01*
X15464643Y-12806500D01*
X15483690Y-12796976D01*
X15626548Y-12816024D02*
X15636071Y-12806500D01*
X15655119Y-12796976D01*
X15702738Y-12796976D01*
X15721786Y-12806500D01*
X15731309Y-12816024D01*
X15740833Y-12835071D01*
X15740833Y-12854119D01*
X15731309Y-12882690D01*
X15617024Y-12996976D01*
X15740833Y-12996976D01*
X15807500Y-12796976D02*
X15931309Y-12796976D01*
X15864643Y-12873167D01*
X15893214Y-12873167D01*
X15912262Y-12882690D01*
X15921786Y-12892214D01*
X15931309Y-12911262D01*
X15931309Y-12958881D01*
X15921786Y-12977928D01*
X15912262Y-12987452D01*
X15893214Y-12996976D01*
X15836071Y-12996976D01*
X15817024Y-12987452D01*
X15807500Y-12977928D01*
X16102738Y-12796976D02*
X16064643Y-12796976D01*
X16045595Y-12806500D01*
X16036071Y-12816024D01*
X16017024Y-12844595D01*
X16007500Y-12882690D01*
X16007500Y-12958881D01*
X16017024Y-12977928D01*
X16026548Y-12987452D01*
X16045595Y-12996976D01*
X16083690Y-12996976D01*
X16102738Y-12987452D01*
X16112262Y-12977928D01*
X16121786Y-12958881D01*
X16121786Y-12911262D01*
X16112262Y-12892214D01*
X16102738Y-12882690D01*
X16083690Y-12873167D01*
X16045595Y-12873167D01*
X16026548Y-12882690D01*
X16017024Y-12892214D01*
X16007500Y-12911262D01*
X16197976Y-12796976D02*
X16197976Y-12835071D01*
X16274167Y-12796976D02*
X16274167Y-12835071D01*
X16569405Y-13073167D02*
X16559881Y-13063643D01*
X16540833Y-13035071D01*
X16531309Y-13016024D01*
X16521786Y-12987452D01*
X16512262Y-12939833D01*
X16512262Y-12901738D01*
X16521786Y-12854119D01*
X16531309Y-12825548D01*
X16540833Y-12806500D01*
X16559881Y-12777928D01*
X16569405Y-12768405D01*
X16683690Y-12796976D02*
X16702738Y-12796976D01*
X16721786Y-12806500D01*
X16731309Y-12816024D01*
X16740833Y-12835071D01*
X16750357Y-12873167D01*
X16750357Y-12920786D01*
X16740833Y-12958881D01*
X16731309Y-12977928D01*
X16721786Y-12987452D01*
X16702738Y-12996976D01*
X16683690Y-12996976D01*
X16664643Y-12987452D01*
X16655119Y-12977928D01*
X16645595Y-12958881D01*
X16636071Y-12920786D01*
X16636071Y-12873167D01*
X16645595Y-12835071D01*
X16655119Y-12816024D01*
X16664643Y-12806500D01*
X16683690Y-12796976D01*
X16988452Y-12996976D02*
X16988452Y-12796976D01*
X17074167Y-12996976D02*
X17074167Y-12892214D01*
X17064643Y-12873167D01*
X17045595Y-12863643D01*
X17017024Y-12863643D01*
X16997976Y-12873167D01*
X16988452Y-12882690D01*
X17197976Y-12996976D02*
X17178929Y-12987452D01*
X17169405Y-12977928D01*
X17159881Y-12958881D01*
X17159881Y-12901738D01*
X17169405Y-12882690D01*
X17178929Y-12873167D01*
X17197976Y-12863643D01*
X17226548Y-12863643D01*
X17245595Y-12873167D01*
X17255119Y-12882690D01*
X17264643Y-12901738D01*
X17264643Y-12958881D01*
X17255119Y-12977928D01*
X17245595Y-12987452D01*
X17226548Y-12996976D01*
X17197976Y-12996976D01*
X17378929Y-12996976D02*
X17359881Y-12987452D01*
X17350357Y-12968405D01*
X17350357Y-12796976D01*
X17531310Y-12987452D02*
X17512262Y-12996976D01*
X17474167Y-12996976D01*
X17455119Y-12987452D01*
X17445595Y-12968405D01*
X17445595Y-12892214D01*
X17455119Y-12873167D01*
X17474167Y-12863643D01*
X17512262Y-12863643D01*
X17531310Y-12873167D01*
X17540833Y-12892214D01*
X17540833Y-12911262D01*
X17445595Y-12930309D01*
X17617024Y-12987452D02*
X17636071Y-12996976D01*
X17674167Y-12996976D01*
X17693214Y-12987452D01*
X17702738Y-12968405D01*
X17702738Y-12958881D01*
X17693214Y-12939833D01*
X17674167Y-12930309D01*
X17645595Y-12930309D01*
X17626548Y-12920786D01*
X17617024Y-12901738D01*
X17617024Y-12892214D01*
X17626548Y-12873167D01*
X17645595Y-12863643D01*
X17674167Y-12863643D01*
X17693214Y-12873167D01*
X17940833Y-12920786D02*
X18093214Y-12920786D01*
X18017024Y-12996976D02*
X18017024Y-12844595D01*
X18331310Y-12816024D02*
X18340833Y-12806500D01*
X18359881Y-12796976D01*
X18407500Y-12796976D01*
X18426548Y-12806500D01*
X18436071Y-12816024D01*
X18445595Y-12835071D01*
X18445595Y-12854119D01*
X18436071Y-12882690D01*
X18321786Y-12996976D01*
X18445595Y-12996976D01*
X18674167Y-12987452D02*
X18693214Y-12996976D01*
X18731310Y-12996976D01*
X18750357Y-12987452D01*
X18759881Y-12968405D01*
X18759881Y-12958881D01*
X18750357Y-12939833D01*
X18731310Y-12930309D01*
X18702738Y-12930309D01*
X18683690Y-12920786D01*
X18674167Y-12901738D01*
X18674167Y-12892214D01*
X18683690Y-12873167D01*
X18702738Y-12863643D01*
X18731310Y-12863643D01*
X18750357Y-12873167D01*
X18874167Y-12996976D02*
X18855119Y-12987452D01*
X18845595Y-12968405D01*
X18845595Y-12796976D01*
X18978929Y-12996976D02*
X18959881Y-12987452D01*
X18950357Y-12977928D01*
X18940833Y-12958881D01*
X18940833Y-12901738D01*
X18950357Y-12882690D01*
X18959881Y-12873167D01*
X18978929Y-12863643D01*
X19007500Y-12863643D01*
X19026548Y-12873167D01*
X19036071Y-12882690D01*
X19045595Y-12901738D01*
X19045595Y-12958881D01*
X19036071Y-12977928D01*
X19026548Y-12987452D01*
X19007500Y-12996976D01*
X18978929Y-12996976D01*
X19102738Y-12863643D02*
X19178929Y-12863643D01*
X19131310Y-12796976D02*
X19131310Y-12968405D01*
X19140833Y-12987452D01*
X19159881Y-12996976D01*
X19178929Y-12996976D01*
X19236071Y-12987452D02*
X19255119Y-12996976D01*
X19293214Y-12996976D01*
X19312262Y-12987452D01*
X19321786Y-12968405D01*
X19321786Y-12958881D01*
X19312262Y-12939833D01*
X19293214Y-12930309D01*
X19264643Y-12930309D01*
X19245595Y-12920786D01*
X19236071Y-12901738D01*
X19236071Y-12892214D01*
X19245595Y-12873167D01*
X19264643Y-12863643D01*
X19293214Y-12863643D01*
X19312262Y-12873167D01*
X19388452Y-13073167D02*
X19397976Y-13063643D01*
X19417024Y-13035071D01*
X19426548Y-13016024D01*
X19436071Y-12987452D01*
X19445595Y-12939833D01*
X19445595Y-12901738D01*
X19436071Y-12854119D01*
X19426548Y-12825548D01*
X19417024Y-12806500D01*
X19397976Y-12777928D01*
X19388452Y-12768405D01*
D14*
X12955000Y-13128000D02*
X12955000Y-13213000D01*
X12912500Y-13170500D02*
X12997500Y-13170500D01*
D11*
X13293214Y-13060976D02*
X13312262Y-13060976D01*
X13331309Y-13070500D01*
X13340833Y-13080024D01*
X13350357Y-13099071D01*
X13359881Y-13137167D01*
X13359881Y-13184786D01*
X13350357Y-13222881D01*
X13340833Y-13241928D01*
X13331309Y-13251452D01*
X13312262Y-13260976D01*
X13293214Y-13260976D01*
X13274167Y-13251452D01*
X13264643Y-13241928D01*
X13255119Y-13222881D01*
X13245595Y-13184786D01*
X13245595Y-13137167D01*
X13255119Y-13099071D01*
X13264643Y-13080024D01*
X13274167Y-13070500D01*
X13293214Y-13060976D01*
X13445595Y-13241928D02*
X13455119Y-13251452D01*
X13445595Y-13260976D01*
X13436071Y-13251452D01*
X13445595Y-13241928D01*
X13445595Y-13260976D01*
X13569405Y-13146690D02*
X13550357Y-13137167D01*
X13540833Y-13127643D01*
X13531309Y-13108595D01*
X13531309Y-13099071D01*
X13540833Y-13080024D01*
X13550357Y-13070500D01*
X13569405Y-13060976D01*
X13607500Y-13060976D01*
X13626548Y-13070500D01*
X13636071Y-13080024D01*
X13645595Y-13099071D01*
X13645595Y-13108595D01*
X13636071Y-13127643D01*
X13626548Y-13137167D01*
X13607500Y-13146690D01*
X13569405Y-13146690D01*
X13550357Y-13156214D01*
X13540833Y-13165738D01*
X13531309Y-13184786D01*
X13531309Y-13222881D01*
X13540833Y-13241928D01*
X13550357Y-13251452D01*
X13569405Y-13260976D01*
X13607500Y-13260976D01*
X13626548Y-13251452D01*
X13636071Y-13241928D01*
X13645595Y-13222881D01*
X13645595Y-13184786D01*
X13636071Y-13165738D01*
X13626548Y-13156214D01*
X13607500Y-13146690D01*
X13826548Y-13060976D02*
X13731309Y-13060976D01*
X13721786Y-13156214D01*
X13731309Y-13146690D01*
X13750357Y-13137167D01*
X13797976Y-13137167D01*
X13817024Y-13146690D01*
X13826548Y-13156214D01*
X13836071Y-13175262D01*
X13836071Y-13222881D01*
X13826548Y-13241928D01*
X13817024Y-13251452D01*
X13797976Y-13260976D01*
X13750357Y-13260976D01*
X13731309Y-13251452D01*
X13721786Y-13241928D01*
X13959881Y-13060976D02*
X13978928Y-13060976D01*
X13997976Y-13070500D01*
X14007500Y-13080024D01*
X14017024Y-13099071D01*
X14026548Y-13137167D01*
X14026548Y-13184786D01*
X14017024Y-13222881D01*
X14007500Y-13241928D01*
X13997976Y-13251452D01*
X13978928Y-13260976D01*
X13959881Y-13260976D01*
X13940833Y-13251452D01*
X13931309Y-13241928D01*
X13921786Y-13222881D01*
X13912262Y-13184786D01*
X13912262Y-13137167D01*
X13921786Y-13099071D01*
X13931309Y-13080024D01*
X13940833Y-13070500D01*
X13959881Y-13060976D01*
X14112262Y-13260976D02*
X14112262Y-13127643D01*
X14112262Y-13146690D02*
X14121786Y-13137167D01*
X14140833Y-13127643D01*
X14169405Y-13127643D01*
X14188452Y-13137167D01*
X14197976Y-13156214D01*
X14197976Y-13260976D01*
X14197976Y-13156214D02*
X14207500Y-13137167D01*
X14226548Y-13127643D01*
X14255119Y-13127643D01*
X14274167Y-13137167D01*
X14283690Y-13156214D01*
X14283690Y-13260976D01*
X14378928Y-13260976D02*
X14378928Y-13127643D01*
X14378928Y-13146690D02*
X14388452Y-13137167D01*
X14407500Y-13127643D01*
X14436071Y-13127643D01*
X14455119Y-13137167D01*
X14464643Y-13156214D01*
X14464643Y-13260976D01*
X14464643Y-13156214D02*
X14474167Y-13137167D01*
X14493214Y-13127643D01*
X14521786Y-13127643D01*
X14540833Y-13137167D01*
X14550357Y-13156214D01*
X14550357Y-13260976D01*
X14940833Y-13051452D02*
X14769405Y-13308595D01*
X15197976Y-13060976D02*
X15217024Y-13060976D01*
X15236071Y-13070500D01*
X15245595Y-13080024D01*
X15255119Y-13099071D01*
X15264643Y-13137167D01*
X15264643Y-13184786D01*
X15255119Y-13222881D01*
X15245595Y-13241928D01*
X15236071Y-13251452D01*
X15217024Y-13260976D01*
X15197976Y-13260976D01*
X15178928Y-13251452D01*
X15169405Y-13241928D01*
X15159881Y-13222881D01*
X15150357Y-13184786D01*
X15150357Y-13137167D01*
X15159881Y-13099071D01*
X15169405Y-13080024D01*
X15178928Y-13070500D01*
X15197976Y-13060976D01*
X15350357Y-13241928D02*
X15359881Y-13251452D01*
X15350357Y-13260976D01*
X15340833Y-13251452D01*
X15350357Y-13241928D01*
X15350357Y-13260976D01*
X15483690Y-13060976D02*
X15502738Y-13060976D01*
X15521786Y-13070500D01*
X15531309Y-13080024D01*
X15540833Y-13099071D01*
X15550357Y-13137167D01*
X15550357Y-13184786D01*
X15540833Y-13222881D01*
X15531309Y-13241928D01*
X15521786Y-13251452D01*
X15502738Y-13260976D01*
X15483690Y-13260976D01*
X15464643Y-13251452D01*
X15455119Y-13241928D01*
X15445595Y-13222881D01*
X15436071Y-13184786D01*
X15436071Y-13137167D01*
X15445595Y-13099071D01*
X15455119Y-13080024D01*
X15464643Y-13070500D01*
X15483690Y-13060976D01*
X15617024Y-13060976D02*
X15740833Y-13060976D01*
X15674167Y-13137167D01*
X15702738Y-13137167D01*
X15721786Y-13146690D01*
X15731309Y-13156214D01*
X15740833Y-13175262D01*
X15740833Y-13222881D01*
X15731309Y-13241928D01*
X15721786Y-13251452D01*
X15702738Y-13260976D01*
X15645595Y-13260976D01*
X15626548Y-13251452D01*
X15617024Y-13241928D01*
X15807500Y-13060976D02*
X15931309Y-13060976D01*
X15864643Y-13137167D01*
X15893214Y-13137167D01*
X15912262Y-13146690D01*
X15921786Y-13156214D01*
X15931309Y-13175262D01*
X15931309Y-13222881D01*
X15921786Y-13241928D01*
X15912262Y-13251452D01*
X15893214Y-13260976D01*
X15836071Y-13260976D01*
X15817024Y-13251452D01*
X15807500Y-13241928D01*
X16112262Y-13060976D02*
X16017024Y-13060976D01*
X16007500Y-13156214D01*
X16017024Y-13146690D01*
X16036071Y-13137167D01*
X16083690Y-13137167D01*
X16102738Y-13146690D01*
X16112262Y-13156214D01*
X16121786Y-13175262D01*
X16121786Y-13222881D01*
X16112262Y-13241928D01*
X16102738Y-13251452D01*
X16083690Y-13260976D01*
X16036071Y-13260976D01*
X16017024Y-13251452D01*
X16007500Y-13241928D01*
X16197976Y-13060976D02*
X16197976Y-13099071D01*
X16274167Y-13060976D02*
X16274167Y-13099071D01*
X16569405Y-13337167D02*
X16559881Y-13327643D01*
X16540833Y-13299071D01*
X16531309Y-13280024D01*
X16521786Y-13251452D01*
X16512262Y-13203833D01*
X16512262Y-13165738D01*
X16521786Y-13118119D01*
X16531309Y-13089548D01*
X16540833Y-13070500D01*
X16559881Y-13041928D01*
X16569405Y-13032405D01*
X16636071Y-13080024D02*
X16645595Y-13070500D01*
X16664643Y-13060976D01*
X16712262Y-13060976D01*
X16731309Y-13070500D01*
X16740833Y-13080024D01*
X16750357Y-13099071D01*
X16750357Y-13118119D01*
X16740833Y-13146690D01*
X16626548Y-13260976D01*
X16750357Y-13260976D01*
X16988452Y-13260976D02*
X16988452Y-13060976D01*
X17074167Y-13260976D02*
X17074167Y-13156214D01*
X17064643Y-13137167D01*
X17045595Y-13127643D01*
X17017024Y-13127643D01*
X16997976Y-13137167D01*
X16988452Y-13146690D01*
X17197976Y-13260976D02*
X17178929Y-13251452D01*
X17169405Y-13241928D01*
X17159881Y-13222881D01*
X17159881Y-13165738D01*
X17169405Y-13146690D01*
X17178929Y-13137167D01*
X17197976Y-13127643D01*
X17226548Y-13127643D01*
X17245595Y-13137167D01*
X17255119Y-13146690D01*
X17264643Y-13165738D01*
X17264643Y-13222881D01*
X17255119Y-13241928D01*
X17245595Y-13251452D01*
X17226548Y-13260976D01*
X17197976Y-13260976D01*
X17378929Y-13260976D02*
X17359881Y-13251452D01*
X17350357Y-13232405D01*
X17350357Y-13060976D01*
X17531310Y-13251452D02*
X17512262Y-13260976D01*
X17474167Y-13260976D01*
X17455119Y-13251452D01*
X17445595Y-13232405D01*
X17445595Y-13156214D01*
X17455119Y-13137167D01*
X17474167Y-13127643D01*
X17512262Y-13127643D01*
X17531310Y-13137167D01*
X17540833Y-13156214D01*
X17540833Y-13175262D01*
X17445595Y-13194309D01*
X17617024Y-13251452D02*
X17636071Y-13260976D01*
X17674167Y-13260976D01*
X17693214Y-13251452D01*
X17702738Y-13232405D01*
X17702738Y-13222881D01*
X17693214Y-13203833D01*
X17674167Y-13194309D01*
X17645595Y-13194309D01*
X17626548Y-13184786D01*
X17617024Y-13165738D01*
X17617024Y-13156214D01*
X17626548Y-13137167D01*
X17645595Y-13127643D01*
X17674167Y-13127643D01*
X17693214Y-13137167D01*
X17769405Y-13337167D02*
X17778929Y-13327643D01*
X17797976Y-13299071D01*
X17807500Y-13280024D01*
X17817024Y-13251452D01*
X17826548Y-13203833D01*
X17826548Y-13165738D01*
X17817024Y-13118119D01*
X17807500Y-13089548D01*
X17797976Y-13070500D01*
X17778929Y-13041928D01*
X17769405Y-13032405D01*
X12968211Y-13505211D02*
X12968211Y-13363789D01*
X12826789Y-13363789D01*
X12826789Y-13505211D01*
X12968211Y-13505211D01*
X13245595Y-13344024D02*
X13255119Y-13334500D01*
X13274167Y-13324976D01*
X13321786Y-13324976D01*
X13340833Y-13334500D01*
X13350357Y-13344024D01*
X13359881Y-13363071D01*
X13359881Y-13382119D01*
X13350357Y-13410690D01*
X13236071Y-13524976D01*
X13359881Y-13524976D01*
X13445595Y-13505928D02*
X13455119Y-13515452D01*
X13445595Y-13524976D01*
X13436071Y-13515452D01*
X13445595Y-13505928D01*
X13445595Y-13524976D01*
X13578928Y-13324976D02*
X13597976Y-13324976D01*
X13617024Y-13334500D01*
X13626548Y-13344024D01*
X13636071Y-13363071D01*
X13645595Y-13401167D01*
X13645595Y-13448786D01*
X13636071Y-13486881D01*
X13626548Y-13505928D01*
X13617024Y-13515452D01*
X13597976Y-13524976D01*
X13578928Y-13524976D01*
X13559881Y-13515452D01*
X13550357Y-13505928D01*
X13540833Y-13486881D01*
X13531309Y-13448786D01*
X13531309Y-13401167D01*
X13540833Y-13363071D01*
X13550357Y-13344024D01*
X13559881Y-13334500D01*
X13578928Y-13324976D01*
X13769405Y-13324976D02*
X13788452Y-13324976D01*
X13807500Y-13334500D01*
X13817024Y-13344024D01*
X13826548Y-13363071D01*
X13836071Y-13401167D01*
X13836071Y-13448786D01*
X13826548Y-13486881D01*
X13817024Y-13505928D01*
X13807500Y-13515452D01*
X13788452Y-13524976D01*
X13769405Y-13524976D01*
X13750357Y-13515452D01*
X13740833Y-13505928D01*
X13731309Y-13486881D01*
X13721786Y-13448786D01*
X13721786Y-13401167D01*
X13731309Y-13363071D01*
X13740833Y-13344024D01*
X13750357Y-13334500D01*
X13769405Y-13324976D01*
X13959881Y-13324976D02*
X13978928Y-13324976D01*
X13997976Y-13334500D01*
X14007500Y-13344024D01*
X14017024Y-13363071D01*
X14026548Y-13401167D01*
X14026548Y-13448786D01*
X14017024Y-13486881D01*
X14007500Y-13505928D01*
X13997976Y-13515452D01*
X13978928Y-13524976D01*
X13959881Y-13524976D01*
X13940833Y-13515452D01*
X13931309Y-13505928D01*
X13921786Y-13486881D01*
X13912262Y-13448786D01*
X13912262Y-13401167D01*
X13921786Y-13363071D01*
X13931309Y-13344024D01*
X13940833Y-13334500D01*
X13959881Y-13324976D01*
X14112262Y-13524976D02*
X14112262Y-13391643D01*
X14112262Y-13410690D02*
X14121786Y-13401167D01*
X14140833Y-13391643D01*
X14169405Y-13391643D01*
X14188452Y-13401167D01*
X14197976Y-13420214D01*
X14197976Y-13524976D01*
X14197976Y-13420214D02*
X14207500Y-13401167D01*
X14226548Y-13391643D01*
X14255119Y-13391643D01*
X14274167Y-13401167D01*
X14283690Y-13420214D01*
X14283690Y-13524976D01*
X14378928Y-13524976D02*
X14378928Y-13391643D01*
X14378928Y-13410690D02*
X14388452Y-13401167D01*
X14407500Y-13391643D01*
X14436071Y-13391643D01*
X14455119Y-13401167D01*
X14464643Y-13420214D01*
X14464643Y-13524976D01*
X14464643Y-13420214D02*
X14474167Y-13401167D01*
X14493214Y-13391643D01*
X14521786Y-13391643D01*
X14540833Y-13401167D01*
X14550357Y-13420214D01*
X14550357Y-13524976D01*
X14940833Y-13315452D02*
X14769405Y-13572595D01*
X15197976Y-13324976D02*
X15217024Y-13324976D01*
X15236071Y-13334500D01*
X15245595Y-13344024D01*
X15255119Y-13363071D01*
X15264643Y-13401167D01*
X15264643Y-13448786D01*
X15255119Y-13486881D01*
X15245595Y-13505928D01*
X15236071Y-13515452D01*
X15217024Y-13524976D01*
X15197976Y-13524976D01*
X15178928Y-13515452D01*
X15169405Y-13505928D01*
X15159881Y-13486881D01*
X15150357Y-13448786D01*
X15150357Y-13401167D01*
X15159881Y-13363071D01*
X15169405Y-13344024D01*
X15178928Y-13334500D01*
X15197976Y-13324976D01*
X15350357Y-13505928D02*
X15359881Y-13515452D01*
X15350357Y-13524976D01*
X15340833Y-13515452D01*
X15350357Y-13505928D01*
X15350357Y-13524976D01*
X15483690Y-13324976D02*
X15502738Y-13324976D01*
X15521786Y-13334500D01*
X15531309Y-13344024D01*
X15540833Y-13363071D01*
X15550357Y-13401167D01*
X15550357Y-13448786D01*
X15540833Y-13486881D01*
X15531309Y-13505928D01*
X15521786Y-13515452D01*
X15502738Y-13524976D01*
X15483690Y-13524976D01*
X15464643Y-13515452D01*
X15455119Y-13505928D01*
X15445595Y-13486881D01*
X15436071Y-13448786D01*
X15436071Y-13401167D01*
X15445595Y-13363071D01*
X15455119Y-13344024D01*
X15464643Y-13334500D01*
X15483690Y-13324976D01*
X15617024Y-13324976D02*
X15750357Y-13324976D01*
X15664643Y-13524976D01*
X15855119Y-13410690D02*
X15836071Y-13401167D01*
X15826548Y-13391643D01*
X15817024Y-13372595D01*
X15817024Y-13363071D01*
X15826548Y-13344024D01*
X15836071Y-13334500D01*
X15855119Y-13324976D01*
X15893214Y-13324976D01*
X15912262Y-13334500D01*
X15921786Y-13344024D01*
X15931309Y-13363071D01*
X15931309Y-13372595D01*
X15921786Y-13391643D01*
X15912262Y-13401167D01*
X15893214Y-13410690D01*
X15855119Y-13410690D01*
X15836071Y-13420214D01*
X15826548Y-13429738D01*
X15817024Y-13448786D01*
X15817024Y-13486881D01*
X15826548Y-13505928D01*
X15836071Y-13515452D01*
X15855119Y-13524976D01*
X15893214Y-13524976D01*
X15912262Y-13515452D01*
X15921786Y-13505928D01*
X15931309Y-13486881D01*
X15931309Y-13448786D01*
X15921786Y-13429738D01*
X15912262Y-13420214D01*
X15893214Y-13410690D01*
X15997976Y-13324976D02*
X16131309Y-13324976D01*
X16045595Y-13524976D01*
X16197976Y-13324976D02*
X16197976Y-13363071D01*
X16274167Y-13324976D02*
X16274167Y-13363071D01*
X16569405Y-13601167D02*
X16559881Y-13591643D01*
X16540833Y-13563071D01*
X16531309Y-13544024D01*
X16521786Y-13515452D01*
X16512262Y-13467833D01*
X16512262Y-13429738D01*
X16521786Y-13382119D01*
X16531309Y-13353548D01*
X16540833Y-13334500D01*
X16559881Y-13305928D01*
X16569405Y-13296405D01*
X16740833Y-13324976D02*
X16645595Y-13324976D01*
X16636071Y-13420214D01*
X16645595Y-13410690D01*
X16664643Y-13401167D01*
X16712262Y-13401167D01*
X16731309Y-13410690D01*
X16740833Y-13420214D01*
X16750357Y-13439262D01*
X16750357Y-13486881D01*
X16740833Y-13505928D01*
X16731309Y-13515452D01*
X16712262Y-13524976D01*
X16664643Y-13524976D01*
X16645595Y-13515452D01*
X16636071Y-13505928D01*
X16988452Y-13524976D02*
X16988452Y-13324976D01*
X17074167Y-13524976D02*
X17074167Y-13420214D01*
X17064643Y-13401167D01*
X17045595Y-13391643D01*
X17017024Y-13391643D01*
X16997976Y-13401167D01*
X16988452Y-13410690D01*
X17197976Y-13524976D02*
X17178929Y-13515452D01*
X17169405Y-13505928D01*
X17159881Y-13486881D01*
X17159881Y-13429738D01*
X17169405Y-13410690D01*
X17178929Y-13401167D01*
X17197976Y-13391643D01*
X17226548Y-13391643D01*
X17245595Y-13401167D01*
X17255119Y-13410690D01*
X17264643Y-13429738D01*
X17264643Y-13486881D01*
X17255119Y-13505928D01*
X17245595Y-13515452D01*
X17226548Y-13524976D01*
X17197976Y-13524976D01*
X17378929Y-13524976D02*
X17359881Y-13515452D01*
X17350357Y-13496405D01*
X17350357Y-13324976D01*
X17531310Y-13515452D02*
X17512262Y-13524976D01*
X17474167Y-13524976D01*
X17455119Y-13515452D01*
X17445595Y-13496405D01*
X17445595Y-13420214D01*
X17455119Y-13401167D01*
X17474167Y-13391643D01*
X17512262Y-13391643D01*
X17531310Y-13401167D01*
X17540833Y-13420214D01*
X17540833Y-13439262D01*
X17445595Y-13458309D01*
X17617024Y-13515452D02*
X17636071Y-13524976D01*
X17674167Y-13524976D01*
X17693214Y-13515452D01*
X17702738Y-13496405D01*
X17702738Y-13486881D01*
X17693214Y-13467833D01*
X17674167Y-13458309D01*
X17645595Y-13458309D01*
X17626548Y-13448786D01*
X17617024Y-13429738D01*
X17617024Y-13420214D01*
X17626548Y-13401167D01*
X17645595Y-13391643D01*
X17674167Y-13391643D01*
X17693214Y-13401167D01*
X17769405Y-13601167D02*
X17778929Y-13591643D01*
X17797976Y-13563071D01*
X17807500Y-13544024D01*
X17817024Y-13515452D01*
X17826548Y-13467833D01*
X17826548Y-13429738D01*
X17817024Y-13382119D01*
X17807500Y-13353548D01*
X17797976Y-13334500D01*
X17778929Y-13305928D01*
X17769405Y-13296405D01*
M02*
