M48
; DRILL file {KiCad 6.0.2+dfsg-1} date Sat 27 Aug 2022 04:01:22 PM EDT
; FORMAT={-:-/ absolute / metric / decimal}
; #@! TF.CreationDate,2022-08-27T16:01:22-04:00
; #@! TF.GenerationSoftware,Kicad,Pcbnew,6.0.2+dfsg-1
; #@! TF.FileFunction,Plated,1,2,PTH
FMAT,2
METRIC
; #@! TA.AperFunction,Plated,PTH,ViaDrill
T1C0.400
; #@! TA.AperFunction,Plated,PTH,ComponentDrill
T2C0.600
; #@! TA.AperFunction,Plated,PTH,ComponentDrill
T3C0.850
; #@! TA.AperFunction,Plated,PTH,ComponentDrill
T4C2.000
%
G90
G05
T1
X131.064Y-100.076
X132.588Y-92.71
X132.588Y-107.188
X134.874Y-95.758
X134.874Y-101.346
X136.652Y-86.614
X136.652Y-107.442
X136.652Y-113.284
X138.176Y-90.424
X140.462Y-111.76
X142.24Y-86.36
X142.748Y-82.55
X142.748Y-117.348
X144.018Y-90.678
X144.78Y-94.234
X147.066Y-88.646
X148.844Y-98.679
X149.098Y-83.82
X149.225Y-101.6
X149.275Y-102.87
X149.352Y-92.456
X149.606Y-88.773
X149.86Y-81.28
X150.876Y-88.646
X151.384Y-101.219
X151.384Y-102.616
X151.892Y-92.202
X151.892Y-112.522
X152.908Y-88.646
X152.908Y-113.792
X154.051Y-103.759
X154.432Y-93.218
X154.686Y-85.852
X154.94Y-91.948
X154.94Y-96.266
X155.702Y-97.282
X155.956Y-90.678
X156.718Y-113.284
X157.226Y-82.804
X157.226Y-117.348
X162.306Y-109.474
X163.322Y-86.614
X163.322Y-92.964
X163.322Y-113.284
X164.338Y-104.394
X165.608Y-98.044
X167.386Y-92.71
X167.386Y-107.188
X168.91Y-100.076
T3
X147.5Y-115.537
X152.5Y-115.537
T4
X140.0Y-96.67
X140.0Y-103.33
X150.0Y-108.0
X160.0Y-96.67
X160.0Y-103.33
T2
X146.5Y-118.587G85X146.5Y-117.887
G05
X153.5Y-117.887G85X153.5Y-118.587
G05
T0
M30
